<?xml version="1.0" standalone="no"?><!DOCTYPE svg PUBLIC "-//W3C//DTD SVG 1.1//EN" "http://www.w3.org/Graphics/SVG/1.1/DTD/svg11.dtd"><svg t="1782696882876" class="icon" viewBox="0 0 1024 1024" version="1.1" xmlns="http://www.w3.org/2000/svg" p-id="8850" xmlns:xlink="http://www.w3.org/1999/xlink" width="128" height="128"><path d="M516.05333333 0l42.24 42.88 440.32 440.32c15.36 16 15.36 41.6 0 57.6L516.05333333 1024l-180.48-180.48L32.85333333 540.8a41.728 41.728 0 0 1 0-57.6L516.05333333 0z m-0.32 360.576l-151.04 151.68 151.04 151.04 151.04-151.04-151.04-151.68z" fill="#2684FF" p-id="8851"></path><path d="M667.47733333 510.848l179.84 179.84-331.52 332.16a254.72 254.72 0 0 0 74.88-180.48c0-67.2-26.88-132.48-74.88-179.84l151.68-151.68zM514.83733333 1.152a254.336 254.336 0 0 0 1.28 359.04l-152.32 151.68-179.84-179.84L514.77333333 1.152z" fill="#0052CC" p-id="8852"></path></svg>