<?xml version="1.0" standalone="no"?><!DOCTYPE svg PUBLIC "-//W3C//DTD SVG 1.1//EN" "http://www.w3.org/Graphics/SVG/1.1/DTD/svg11.dtd"><svg t="1782696925265" class="icon" viewBox="0 0 1024 1024" version="1.1" xmlns="http://www.w3.org/2000/svg" p-id="12124" xmlns:xlink="http://www.w3.org/1999/xlink" width="128" height="128"><path d="M512 64c43.776 0 100.181333 12.544 170.368 37.162667L697.6 106.666667l-29.312 80.128C599.594667 161.621333 546.986667 149.333333 512 149.333333a340.821333 340.821333 0 0 0-277.461333 142.464l-6.869334 9.984L156.586667 254.464A426.24 426.24 0 0 1 512 64z m283.818667 659.2l70.869333 47.488a426.24 426.24 0 0 1-354.688 189.44c-61.44 0-121.173333-13.013333-175.914667-37.802667l-14.805333-7.082666 38.186667-76.288c46.933333 23.466667 98.816 35.84 152.533333 35.84a340.821333 340.821333 0 0 0 276.906667-141.653334l6.912-9.941333z" p-id="12125"></path><path d="M110.933333 379.52h92.842667a21.333333 21.333333 0 0 1 20.906667 17.237333l24.192 123.818667h2.474666l27.477334-124.330667a21.333333 21.333333 0 0 1 20.821333-16.725333h88.405333a21.333333 21.333333 0 0 1 21.333334 21.333333v238.634667a21.333333 21.333333 0 0 1-21.333334 21.333333h-36.352a21.333333 21.333333 0 0 1-21.333333-21.333333V456.96h-2.432l-36.053333 142.762667a21.333333 21.333333 0 0 1-20.693334 16.128H225.92a21.333333 21.333333 0 0 1-20.736-16.298667L170.24 456.96h-2.389333v182.528a21.333333 21.333333 0 0 1-21.333334 21.333333H110.933333a21.333333 21.333333 0 0 1-21.333333-21.333333V400.853333a21.333333 21.333333 0 0 1 21.333333-21.333333zM597.461333 664.874667c-21.589333 0-41.130667-2.048-58.538666-6.101334a101.973333 101.973333 0 0 1-44.586667-22.058666c-12.288-10.666667-21.845333-25.429333-28.586667-44.202667-6.741333-18.773333-10.154667-42.88-10.154666-72.32 0-27.050667 3.285333-49.792 9.770666-68.309333 6.485333-18.517333 15.701333-33.450667 27.733334-44.8a103.978667 103.978667 0 0 1 43.562666-24.32 207.872 207.872 0 0 1 57.173334-7.296c13.781333 0 26.624 0.853333 38.485333 2.645333 4.181333 0.597333 9.045333 1.578667 14.506667 2.986667a21.290667 21.290667 0 0 1 16.341333 20.693333v25.344a21.333333 21.333333 0 0 1-25.6 20.906667 193.749333 193.749333 0 0 0-37.248-4.48c-10.24 0-18.901333 1.28-25.941333 3.84-7.04 2.56-12.8 6.826667-17.450667 12.8a57.173333 57.173333 0 0 0-9.898667 23.68 183.722667 183.722667 0 0 0-3.072 36.266666c0 15.146667 1.152 27.605333 3.456 37.333334 2.304 9.728 5.802667 17.322667 10.538667 22.869333 4.736 5.546667 10.666667 9.386667 17.834667 11.562667 7.168 2.133333 15.786667 3.242667 25.770666 3.242666 10.496 0 21.248-0.725333 32.213334-2.218666a105.386667 105.386667 0 0 0 6.869333-1.194667 21.333333 21.333333 0 0 1 25.770667 20.992v24.874667a21.290667 21.290667 0 0 1-16 20.565333 190.634667 190.634667 0 0 1-52.906667 6.698667zM729.898667 379.52h88.106666c22.144 0 40.661333 1.834667 55.509334 5.461333 14.848 3.669333 26.837333 9.472 35.84 17.450667 9.088 7.978667 15.488 18.304 19.285333 30.976 3.797333 12.714667 5.674667 28.16 5.674667 46.250667 0 19.712-2.133333 36.266667-6.272 49.621333a68.821333 68.821333 0 0 1-20.266667 32.256c-9.344 8.106667-21.333333 13.909333-36.096 17.408a235.008 235.008 0 0 1-53.674667 5.248h-28.8v55.296a21.333333 21.333333 0 0 1-21.333333 21.333333h-37.973333a21.333333 21.333333 0 0 1-21.333334-21.333333V400.853333a21.333333 21.333333 0 0 1 21.333334-21.333333z m76.330666 140.629333c16.768 0 28.586667-2.688 35.456-8.106666 6.912-5.376 10.325333-15.530667 10.325334-30.378667 0-15.658667-3.498667-26.282667-10.538667-31.829333-6.997333-5.546667-18.773333-8.277333-35.242667-8.277334h-17.024v78.634667h17.024z" p-id="12126"></path><path d="M778.666667 202.666667m-53.333334 0a53.333333 53.333333 0 1 0 106.666667 0 53.333333 53.333333 0 1 0-106.666667 0Z" p-id="12127"></path><path d="M245.333333 821.333333m-53.333333 0a53.333333 53.333333 0 1 0 106.666667 0 53.333333 53.333333 0 1 0-106.666667 0Z" p-id="12128"></path></svg>